<svg width="30" height="30" viewBox="0 0 30 30" fill="none" xmlns="http://www.w3.org/2000/svg">
<rect x="1" y="1" width="28" height="28" rx="14" stroke="white" stroke-width="2"/>
<path d="M13.4828 22V11.0909H16.5083V22H13.4828ZM15.0027 9.68466C14.5529 9.68466 14.167 9.53551 13.845 9.23722C13.5278 8.93419 13.3691 8.57197 13.3691 8.15057C13.3691 7.7339 13.5278 7.37642 13.845 7.07812C14.167 6.77509 14.5529 6.62358 15.0027 6.62358C15.4525 6.62358 15.836 6.77509 16.1532 7.07812C16.4752 7.37642 16.6362 7.7339 16.6362 8.15057C16.6362 8.57197 16.4752 8.93419 16.1532 9.23722C15.836 9.53551 15.4525 9.68466 15.0027 9.68466Z" fill="white"/>
</svg>
